<svg xmlns="http://www.w3.org/2000/svg" xmlns:xlink="http://www.w3.org/1999/xlink" version="1.1" x="0px" y="0px" viewBox="0 0 25.4 31.875" style="enable-background:new 0 0 25.4 25.5;" xml:space="preserve"><style type="text/css">
	.st0{fill:#010101;}
</style><path class="st0" d="M24.8,3l-2.3-2.3c-0.9-0.9-2.3-0.9-3.2,0L1.7,18.2c-0.1,0.1-0.1,0.1-0.1,0.2L0,24c0,0.2,0,0.3,0.1,0.4l0.1,0.1  l0.6,0.6L1,25.3c0.1,0.1,0.3,0.2,0.4,0.1L7,23.8c0,0,0,0,0,0c0.1,0,0.1-0.1,0.2-0.1L24.8,6.1C25.6,5.3,25.6,3.9,24.8,3z M21.8,1.4  L24,3.6c0.5,0.5,0.5,1.3,0,1.8l-1.8,1.8l-4.1-4.1L20,1.4C20.5,0.9,21.3,0.9,21.8,1.4z M1.7,24.2l-0.5-0.5l1.5-5.1L17.3,4.1l4.1,4.1  L7.3,22.3L3,17.8c-0.2-0.2-0.7,0.1-0.9,0.2c-0.2,0.2-0.2,0.4,0,0.6l4.1,4.3L1.7,24.2z M19.3,8.3c0.2,0.2,0.3,0.6,0.1,0.7l-9.8,9.8  C9.3,19.1,9,19,8.8,18.8l0,0c-0.2-0.2-0.3-0.6-0.1-0.7l9.8-9.8C18.8,8,19.1,8.1,19.3,8.3L19.3,8.3z"/><text transform="matrix(1 0 0 1 4.8013 47.5784)" class="st0" style="" font-family="'ProximaNovaSoft-Regular'" font-size="8.9159px">EDIT</text><text x="0" y="40.5" fill="#000000" font-size="5px" font-weight="bold" font-family="'Helvetica Neue', Helvetica, Arial-Unicode, Arial, Sans-serif">Created by Antony</text><text x="0" y="45.5" fill="#000000" font-size="5px" font-weight="bold" font-family="'Helvetica Neue', Helvetica, Arial-Unicode, Arial, Sans-serif">from the Noun Project</text></svg>